HIERARCHY
ROOT Hips
{
	OFFSET 0.00 0.00 0.00
	CHANNELS 6 Xposition Yposition Zposition Xrotation Yrotation Zrotation
	JOINT LeftUpLeg
	{
		OFFSET 2.83210 0.00000 0.00000
		CHANNELS 3 Xrotation Yrotation Zrotation
		JOINT LeftLeg
		{
			OFFSET 0.00000 -16.27150 0.00000
			CHANNELS 3 Xrotation Yrotation Zrotation
			JOINT LeftFoot
			{
				OFFSET 0.00000 -14.95190 0.00000
				CHANNELS 3 Xrotation Yrotation Zrotation
				JOINT LeftToeBase
				{
					OFFSET 0.00000 -1.07991 4.03030
					CHANNELS 3 Xrotation Yrotation Zrotation
					End Site
					{
						OFFSET 0.00000 0.00000 2.95275
					}
				}
			}
		}
	}
	JOINT RightUpLeg
	{
		OFFSET -2.83210 0.00000 0.00000
		CHANNELS 3 Xrotation Yrotation Zrotation
		JOINT RightLeg
		{
			OFFSET 0.00000 -16.27150 0.00000
			CHANNELS 3 Xrotation Yrotation Zrotation
			JOINT RightFoot
			{
				OFFSET 0.00000 -14.95190 0.00000
				CHANNELS 3 Xrotation Yrotation Zrotation
				JOINT RightToeBase
				{
					OFFSET 0.00000 -1.07991 4.03030
					CHANNELS 3 Xrotation Yrotation Zrotation
					End Site
					{
						OFFSET 0.00000 0.00000 2.95275
					}
				}
			}
		}
	}
	JOINT Spine
	{
		OFFSET 0.00000 0.03937 0.00000
		CHANNELS 3 Xrotation Yrotation Zrotation
		JOINT Spine1
		{
			OFFSET 0.00000 8.01054 0.00000
			CHANNELS 3 Xrotation Yrotation Zrotation
			JOINT Neck
			{
				OFFSET 0.00000 8.21888 0.00000
				CHANNELS 3 Xrotation Yrotation Zrotation
				JOINT Head
				{
					OFFSET 0.00000 3.25664 0.00000
					CHANNELS 3 Xrotation Yrotation Zrotation
					End Site
					{
						OFFSET 0.00000 4.52755 0.00000
					}
				}
			}
			JOINT LeftShoulder
			{
				OFFSET 0.00000 8.21888 0.00000
				CHANNELS 3 Xrotation Yrotation Zrotation
				JOINT LeftArm
				{
					OFFSET 6.52904 -0.00002 0.00000
					CHANNELS 3 Xrotation Yrotation Zrotation
					JOINT LeftForeArm
					{
						OFFSET 10.44840 -0.00004 0.00000
						CHANNELS 3 Xrotation Yrotation Zrotation
						JOINT LeftHand
						{
							OFFSET 8.94727 -0.00003 0.00000
							CHANNELS 3 Xrotation Yrotation Zrotation
							JOINT LeftHandThumb
							{
								OFFSET 0.00000 0.00000 0.00000
								CHANNELS 3 Xrotation Yrotation Zrotation
								End Site
								{
									OFFSET 0.00000 0.00000 3.93700
								}
							}
							JOINT L_Wrist_End
							{
								OFFSET 3.93700 -0.00001 0.00000
								CHANNELS 3 Xrotation Yrotation Zrotation
							}
						}
					}
				}
			}
			JOINT RightShoulder
			{
				OFFSET 0.00000 8.21888 0.00000
				CHANNELS 3 Xrotation Yrotation Zrotation
				JOINT RightArm
				{
					OFFSET -6.52904 -0.00002 0.00000
					CHANNELS 3 Xrotation Yrotation Zrotation
					JOINT RightForeArm
					{
						OFFSET -10.44840 -0.00004 0.00000
						CHANNELS 3 Xrotation Yrotation Zrotation
						JOINT RightHand
						{
							OFFSET -8.94727 -0.00003 0.00000
							CHANNELS 3 Xrotation Yrotation Zrotation
							JOINT RightHandThumb
							{
								OFFSET 0.00000 0.00000 0.00000
								CHANNELS 3 Xrotation Yrotation Zrotation
								End Site
								{
									OFFSET 0.00000 0.00000 3.93700
								}
							}
							JOINT R_Wrist_End
							{
								OFFSET -5.39369 -0.00002 0.00000
								CHANNELS 3 Xrotation Yrotation Zrotation
							}
						}
					}
				}
			}
		}
	}
}
MOTION
Frames: 9
Frame Time: 0.008333
 13.9381 30.6136 0.9560 161.2671 -35.3139 168.4787 -41.2423 15.7278 3.2130 47.9282 0.0000 -0.0000 -31.9313 37.2181 21.2690 17.7607 -0.0000 0.0000 -36.9793 -26.0692 -27.3269 32.2022 -0.0000 0.0000 -4.7956 -14.3426 40.5035 19.2795 -0.0000 0.0000 0.2527 6.2515 -9.3005 3.3549 -2.3344 19.3216 2.2118 64.0646 -18.4010 -67.0047 -22.8528 -40.2515 -8.5831 27.4009 24.5847 -52.8092 -31.9403 -3.8759 -0.0000 -4.4346 -0.0000 12.3299 3.7220 -5.7960 0.0000 0.0000 -0.0000 0.0000 0.0000 -0.0000 9.4687 -17.6399 -11.3596 -39.6744 11.2383 18.1504 -0.0000 0.7954 0.0000 12.8919 -17.4028 -31.6620 -0.0000 0.0000 0.0000 -0.0000 0.0000 0.0000
 14.1039 30.6146 0.8098 160.6415 -37.9929 166.9614 -41.4170 16.1449 3.7987 47.8069 0.0000 0.0000 -32.6845 37.0968 22.4924 18.7094 -0.0000 0.0000 -36.7606 -29.2140 -27.7446 32.1905 -0.0000 0.0000 -5.6254 -14.4591 40.7824 19.3047 -0.0000 0.0000 0.4513 6.2678 -9.4029 2.9904 -2.3235 19.2887 2.2227 64.0284 -18.0846 -67.4636 -23.0511 -40.3025 -8.8064 27.1562 25.0232 -53.5492 -31.5117 -4.2936 -0.0000 -4.7561 -0.0000 12.3041 3.7676 -5.5343 -0.0000 0.0000 -0.0000 -0.0000 0.0000 -0.0000 9.7502 -17.6065 -10.9055 -38.8770 11.5904 17.8321 -0.0000 0.7091 0.0000 12.8069 -17.5125 -32.2012 0.0000 0.0000 -0.0000 0.0000 0.0000 -0.0000
 14.2243 30.6325 0.6755 159.9225 -40.6455 165.6763 -41.3957 16.1450 4.0693 47.5051 -0.0000 -0.0000 -33.2883 37.2584 24.0071 18.8031 0.0000 0.0000 -36.6278 -31.9259 -28.4259 32.1863 0.0000 -0.0000 -6.2370 -14.7180 41.2601 19.4628 -0.0000 0.0000 0.6097 6.2793 -9.5780 2.7706 -2.3229 19.0158 1.9353 64.1644 -17.5481 -67.8147 -23.1328 -40.3771 -9.7679 26.8994 25.8901 -53.6423 -31.1472 -4.9180 -0.0000 -5.0970 -0.0000 12.2125 3.8455 -5.1747 -0.0000 0.0000 0.0000 -0.0000 0.0000 0.0000 9.5320 -17.4782 -10.5199 -37.7881 11.8967 17.5319 -0.0000 0.5030 0.0000 12.6476 -17.2191 -32.5017 -0.0000 0.0000 0.0000 -0.0000 0.0000 0.0000
 14.2867 30.6568 0.5512 159.1361 -43.5793 164.6141 -41.0915 15.9060 3.9112 47.1800 0.0000 0.0000 -33.7003 38.2488 24.4516 18.8661 -0.0000 -0.0000 -36.8949 -34.7670 -29.8506 32.3032 -0.0000 0.0000 -6.6765 -14.8779 41.4556 19.4816 -0.0000 0.0000 0.7035 6.2350 -9.8402 2.7775 -2.3662 18.7109 1.9308 64.0124 -17.1109 -68.3028 -22.8529 -40.5506 -9.8394 26.5006 26.0654 -53.9331 -30.7473 -4.8621 -0.0000 -5.3313 -0.0000 12.6530 3.7084 -5.1003 -0.0000 0.0000 -0.0000 -0.0000 0.0000 -0.0000 9.2146 -17.5356 -10.3934 -36.8073 12.0876 17.5140 -0.0000 0.0509 0.0000 12.7798 -17.0642 -33.0402 -0.0000 -0.0000 0.0000 -0.0000 -0.0000 0.0000
 14.3961 30.6987 0.4055 157.9366 -46.2784 162.4528 -41.5232 15.6822 4.8476 47.1335 0.0000 0.0000 -34.1629 39.4566 25.4654 18.1745 -0.0000 0.0000 -36.5904 -37.5738 -29.9090 32.2863 0.0000 0.0000 -6.6196 -15.6002 40.9734 19.2743 -0.0000 0.0000 0.7335 6.2654 -9.5474 2.5703 -2.3734 18.3463 1.2102 64.0470 -16.1536 -68.6821 -22.7240 -40.6557 -9.9896 26.5015 26.4994 -54.2421 -30.7239 -4.9851 -0.0000 -5.4131 -0.0000 13.0083 3.6647 -4.9645 -0.0000 -0.0000 -0.0000 -0.0000 -0.0000 -0.0000 8.8313 -17.2493 -10.1019 -35.9001 11.5823 17.4535 -0.0000 0.1458 0.0000 12.6582 -17.1485 -33.1676 -0.0000 -0.0000 0.0000 -0.0000 -0.0000 0.0000
 14.4027 30.7297 0.3110 156.9345 -49.0921 161.2725 -41.2273 16.1366 4.8558 46.9074 -0.0000 0.0000 -34.5770 40.6856 25.7989 17.8096 0.0000 -0.0000 -37.0261 -39.9097 -31.4204 32.6025 -0.0000 0.0000 -6.4900 -15.9827 40.6783 19.0389 0.0000 -0.0000 0.8203 6.3922 -9.7633 2.6372 -2.2422 18.0439 1.2153 63.8816 -16.1588 -68.9953 -22.7936 -40.7820 -10.0549 26.2218 26.5507 -54.2449 -30.6560 -5.0093 -0.0000 -5.5302 -0.0000 13.4170 3.7356 -5.1333 -0.0000 -0.0000 -0.0000 -0.0000 -0.0000 -0.0000 8.9086 -17.5814 -10.0681 -36.3723 10.9557 17.8019 -0.0000 0.1993 0.0000 13.1359 -17.2909 -33.0825 0.0000 0.0000 -0.0000 0.0000 0.0000 -0.0000
 14.4064 30.7574 0.2205 155.8101 -51.8093 159.9075 -41.0025 17.0877 5.1021 46.6996 0.0000 -0.0000 -34.9877 41.4728 25.9090 17.7437 -0.0000 0.0000 -37.2273 -41.7555 -32.5423 33.0447 -0.0000 0.0000 -6.2512 -16.9703 40.3702 19.0913 -0.0000 0.0000 0.9006 6.4046 -9.8571 2.7571 -2.2274 17.6625 1.1692 64.0697 -16.2877 -69.1561 -23.0621 -40.7999 -9.9619 26.2227 26.6600 -54.1759 -30.5135 -4.8942 -0.0000 -5.5953 -0.0000 13.4552 3.6605 -5.2212 -0.0000 -0.0000 0.0000 -0.0000 -0.0000 0.0000 8.5864 -17.6100 -10.2106 -36.5110 10.4046 18.2606 -0.0000 0.1061 0.0000 13.5923 -17.3728 -33.0087 0.0000 0.0000 -0.0000 0.0000 0.0000 -0.0000
 14.3914 30.7828 0.1273 154.4492 -54.5680 158.3212 -40.8039 18.5067 5.4592 46.5070 -0.0000 0.0000 -35.5213 41.9699 26.4372 17.6335 0.0000 0.0000 -37.2127 -43.3037 -33.4441 33.5023 -0.0000 0.0000 -5.8371 -18.2487 40.0158 18.5311 0.0000 -0.0000 0.9176 6.4324 -9.9458 2.9251 -2.2059 17.3050 0.9239 64.0829 -16.0848 -69.2513 -23.1926 -40.8639 -10.0441 26.1286 26.7974 -54.0887 -30.5475 -4.9269 -0.0000 -5.5541 -0.0000 12.9809 3.4290 -5.1999 -0.0000 0.0000 0.0000 -0.0000 0.0000 0.0000 8.5615 -17.7551 -10.2393 -37.0256 9.7427 18.7266 -0.0000 0.0925 0.0000 14.1853 -17.6879 -32.6200 -0.0000 0.0000 0.0000 -0.0000 0.0000 0.0000
 14.3624 30.8081 0.0402 152.8042 -57.3218 156.4699 -40.5975 20.2875 5.8978 46.2753 -0.0000 0.0000 -35.8558 42.1939 26.4263 17.1381 -0.0000 0.0000 -36.6818 -44.2768 -33.8454 33.9203 -0.0000 -0.0000 -5.4193 -19.8319 40.1450 17.9933 -0.0000 -0.0000 0.9010 6.4606 -10.0243 3.1392 -2.1864 16.9847 0.9661 64.1626 -16.4129 -69.3331 -23.5725 -40.8588 -10.1315 26.0338 26.8867 -53.9489 -30.6324 -4.9253 -0.0000 -5.4645 -0.0000 12.6839 3.3372 -5.2747 -0.0000 0.0000 -0.0000 -0.0000 0.0000 -0.0000 8.5498 -17.9879 -10.2190 -37.5371 9.1196 19.1488 -0.0000 0.1750 0.0000 14.3812 -17.6353 -32.2488 -0.0000 -0.0000 0.0000 -0.0000 -0.0000 0.0000
